<svg width="1360" height="1808" viewBox="0 0 1360 1808" fill="none" xmlns="http://www.w3.org/2000/svg">
<path d="M163.581 251.736C162.077 251.132 162.576 250.295 163.836 249.706C166.261 248.576 169.013 248.617 170.842 249.04C172.032 249.315 172.659 249.985 172.613 251.013C172.578 251.801 171.907 252.737 170.804 253.592C169.295 254.762 166.963 255.904 166.088 256.565C166.051 256.593 166.007 256.634 165.961 256.683C166.36 256.606 166.825 256.468 167.329 256.329C169.83 255.642 172.921 254.398 174.474 254.13C174.892 254.059 177.58 253.568 178.579 253.767C179.456 253.943 179.877 254.434 180.025 254.918C180.209 255.521 180.08 256.145 179.617 256.731C178.92 257.616 177.06 258.466 176.468 258.814C174.089 260.2 171.63 261.421 169.258 262.784C168.278 263.348 167.311 263.935 166.374 264.573C166.172 264.71 165.279 265.235 164.571 265.835C164.521 265.876 164.469 265.925 164.417 265.977C164.71 265.976 165.018 265.914 165.326 265.836C166.603 265.511 167.888 264.788 168.806 264.381C171.379 263.237 173.909 261.948 176.518 260.836C178.321 260.067 180.161 259.378 182.085 258.885C183.204 258.575 186.203 257.858 188.356 257.981C190.038 258.076 191.239 258.747 191.72 259.859C192.106 260.751 191.815 261.778 191.059 262.772C190.004 264.16 187.86 265.491 187.017 265.948C185.42 266.791 183.754 267.552 182.023 268.21C179.581 269.138 177.04 269.888 174.688 270.947C173.748 271.371 172.83 271.828 171.957 272.356C171.525 272.619 169.974 273.486 168.745 274.469C168.409 274.738 168.198 275.182 167.986 275.475C168.121 275.49 168.263 275.496 168.402 275.508C169.146 275.574 169.933 275.481 170.484 275.391C172.504 275.06 174.206 274.68 175.864 274.148C177.487 273.627 179.063 272.953 180.858 272.047L185.195 270.184C187.886 268.961 189.493 271.941 186.948 273.111L182.705 274.975C180.676 275.925 178.897 276.616 177.077 277.147C175.229 277.686 173.342 278.067 171.105 278.378C170.132 278.514 168.667 278.608 167.412 278.363C166.224 278.132 165.212 277.618 164.618 276.781C164.081 276.025 164.094 274.991 164.915 273.901C166.091 272.34 169.242 270.331 169.93 269.882C171.363 268.92 172.908 268.117 174.511 267.393C176.641 266.432 178.846 265.567 181.06 264.752C182.474 264.231 183.904 263.766 185.259 263.167C185.68 262.983 186.513 262.585 187.301 262.063C187.75 261.765 188.2 261.445 188.522 261.093C188.628 260.978 188.731 260.871 188.797 260.754C188.916 260.539 188.653 260.543 188.432 260.459C187.923 260.36 187.319 260.345 186.701 260.382C185.154 260.475 183.537 260.842 182.813 261.016C181.024 261.476 179.311 262.113 177.641 262.838C175.054 263.961 172.565 265.286 170.022 266.453C168.8 267.015 166.987 268.027 165.298 268.29C164.272 268.45 163.281 268.356 162.398 267.926C161.31 267.395 161.093 266.63 161.336 265.788C161.463 265.352 161.807 264.851 162.29 264.376C163.113 263.567 164.366 262.788 164.625 262.606C165.609 261.912 166.623 261.271 167.656 260.658C169.857 259.352 172.14 258.176 174.357 256.87C172.458 257.352 169.33 258.588 167.084 259.035C165.889 259.272 164.872 259.285 164.208 259.081C163.034 258.721 162.656 258.044 162.621 257.335C162.603 256.964 162.706 256.548 162.938 256.143C163.271 255.562 163.872 254.98 164.296 254.672C165.077 254.107 166.972 253.192 168.477 252.208C168.973 251.883 169.843 251.497 169.742 251.227C169.642 250.957 165.609 251.682 165.609 251.682C165.375 251.727 165.007 251.816 164.673 251.849C164.588 251.869 164.496 251.882 164.398 251.888C164.137 251.902 163.721 251.793 163.581 251.736Z" fill="#DF565B" fill-opacity="0.69"/>
<path d="M573.581 135.736C572.077 135.132 572.576 134.295 573.836 133.706C576.261 132.576 579.013 132.617 580.842 133.04C582.032 133.315 582.659 133.985 582.613 135.013C582.578 135.801 581.907 136.737 580.804 137.592C579.295 138.762 576.963 139.904 576.088 140.565C576.051 140.593 576.007 140.634 575.961 140.683C576.36 140.606 576.825 140.468 577.329 140.329C579.83 139.642 582.921 138.398 584.474 138.13C584.892 138.059 587.58 137.568 588.579 137.767C589.456 137.943 589.877 138.434 590.025 138.918C590.209 139.521 590.08 140.145 589.617 140.731C588.92 141.616 587.06 142.466 586.468 142.814C584.089 144.2 581.63 145.421 579.258 146.784C578.278 147.348 577.311 147.935 576.374 148.573C576.172 148.71 575.279 149.235 574.571 149.835C574.521 149.876 574.469 149.925 574.417 149.977C574.71 149.976 575.018 149.914 575.326 149.836C576.603 149.511 577.888 148.788 578.806 148.381C581.379 147.237 583.909 145.948 586.518 144.836C588.321 144.067 590.161 143.378 592.085 142.885C593.204 142.575 596.203 141.858 598.356 141.981C600.038 142.076 601.239 142.747 601.72 143.859C602.106 144.751 601.815 145.778 601.059 146.772C600.004 148.16 597.86 149.491 597.017 149.948C595.42 150.791 593.754 151.552 592.023 152.21C589.581 153.138 587.04 153.888 584.688 154.947C583.748 155.371 582.83 155.828 581.957 156.356C581.525 156.619 579.974 157.486 578.745 158.469C578.409 158.738 578.198 159.182 577.986 159.475C578.121 159.49 578.263 159.496 578.402 159.508C579.146 159.574 579.933 159.481 580.484 159.391C582.504 159.06 584.206 158.68 585.864 158.148C587.487 157.627 589.063 156.953 590.858 156.047L595.195 154.184C597.886 152.961 599.493 155.941 596.948 157.111L592.705 158.975C590.676 159.925 588.897 160.616 587.077 161.147C585.229 161.686 583.342 162.067 581.105 162.378C580.132 162.514 578.667 162.608 577.412 162.363C576.224 162.132 575.212 161.618 574.618 160.781C574.081 160.025 574.094 158.991 574.915 157.901C576.091 156.34 579.242 154.331 579.93 153.882C581.363 152.92 582.908 152.117 584.511 151.393C586.641 150.432 588.846 149.567 591.06 148.752C592.474 148.231 593.904 147.766 595.259 147.167C595.68 146.983 596.513 146.585 597.301 146.063C597.75 145.765 598.2 145.445 598.522 145.093C598.628 144.978 598.731 144.871 598.797 144.754C598.916 144.539 598.653 144.543 598.432 144.459C597.923 144.36 597.319 144.345 596.701 144.382C595.154 144.475 593.537 144.842 592.813 145.016C591.024 145.476 589.311 146.113 587.641 146.838C585.054 147.961 582.565 149.286 580.022 150.453C578.8 151.015 576.987 152.027 575.298 152.29C574.272 152.45 573.281 152.356 572.398 151.926C571.31 151.395 571.093 150.63 571.336 149.788C571.463 149.352 571.807 148.851 572.29 148.376C573.113 147.567 574.366 146.788 574.625 146.606C575.609 145.912 576.623 145.271 577.656 144.658C579.857 143.352 582.14 142.176 584.357 140.87C582.458 141.352 579.33 142.588 577.084 143.035C575.889 143.272 574.872 143.285 574.208 143.081C573.034 142.721 572.656 142.044 572.621 141.335C572.603 140.964 572.706 140.548 572.938 140.143C573.271 139.562 573.872 138.98 574.296 138.672C575.077 138.107 576.972 137.192 578.477 136.208C578.973 135.883 579.843 135.497 579.742 135.227C579.642 134.957 575.609 135.682 575.609 135.682C575.375 135.727 575.007 135.816 574.673 135.849C574.588 135.869 574.496 135.882 574.398 135.888C574.137 135.902 573.721 135.793 573.581 135.736Z" fill="#DF565B" fill-opacity="0.69"/>
<path d="M364.586 1311.22C362.61 1310.43 363.266 1309.33 364.922 1308.56C368.107 1307.07 371.723 1307.12 374.125 1307.68C375.689 1308.04 376.513 1308.92 376.453 1310.27C376.407 1311.31 375.524 1312.54 374.075 1313.66C372.093 1315.2 369.03 1316.7 367.881 1317.57C367.832 1317.6 367.774 1317.66 367.713 1317.72C368.237 1317.62 368.848 1317.44 369.511 1317.26C372.797 1316.35 376.857 1314.72 378.897 1314.37C379.446 1314.27 382.978 1313.63 384.29 1313.89C385.442 1314.12 385.996 1314.77 386.19 1315.4C386.432 1316.19 386.262 1317.01 385.654 1317.78C384.738 1318.95 382.294 1320.06 381.516 1320.52C378.391 1322.34 375.161 1323.94 372.045 1325.74C370.757 1326.48 369.487 1327.25 368.257 1328.09C367.991 1328.27 366.817 1328.96 365.887 1329.74C365.822 1329.8 365.753 1329.86 365.685 1329.93C366.07 1329.93 366.474 1329.85 366.879 1329.75C368.557 1329.32 370.244 1328.37 371.451 1327.83C374.832 1326.33 378.155 1324.64 381.583 1323.18C383.951 1322.17 386.368 1321.26 388.896 1320.61C390.366 1320.21 394.306 1319.26 397.134 1319.43C399.344 1319.55 400.921 1320.43 401.553 1321.89C402.061 1323.07 401.679 1324.41 400.686 1325.72C399.299 1327.54 396.483 1329.29 395.375 1329.89C393.277 1331 391.089 1332 388.815 1332.86C385.606 1334.08 382.269 1335.07 379.179 1336.46C377.943 1337.02 376.737 1337.62 375.59 1338.31C375.023 1338.66 372.985 1339.8 371.371 1341.09C370.93 1341.44 370.652 1342.02 370.374 1342.41C370.551 1342.43 370.738 1342.44 370.92 1342.45C371.897 1342.54 372.931 1342.42 373.656 1342.3C376.309 1341.86 378.545 1341.36 380.724 1340.66C382.856 1339.98 384.925 1339.1 387.283 1337.9L392.981 1335.46C396.517 1333.85 398.628 1337.77 395.285 1339.3L389.71 1341.75C387.045 1343 384.708 1343.91 382.316 1344.6C379.889 1345.31 377.411 1345.81 374.472 1346.22C373.192 1346.4 371.268 1346.52 369.62 1346.2C368.059 1345.9 366.73 1345.22 365.949 1344.12C365.244 1343.13 365.26 1341.77 366.339 1340.34C367.884 1338.29 372.023 1335.65 372.928 1335.06C374.81 1333.8 376.84 1332.74 378.946 1331.79C381.743 1330.53 384.641 1329.39 387.549 1328.32C389.407 1327.64 391.286 1327.03 393.065 1326.24C393.619 1326 394.713 1325.47 395.748 1324.79C396.338 1324.4 396.929 1323.98 397.353 1323.51C397.491 1323.36 397.627 1323.22 397.713 1323.07C397.87 1322.79 397.525 1322.79 397.234 1322.68C396.565 1322.55 395.771 1322.53 394.96 1322.58C392.928 1322.7 390.804 1323.18 389.852 1323.41C387.502 1324.02 385.252 1324.85 383.057 1325.81C379.659 1327.28 376.389 1329.02 373.049 1330.56C371.443 1331.29 369.062 1332.62 366.842 1332.97C365.494 1333.18 364.192 1333.06 363.033 1332.49C361.604 1331.79 361.318 1330.79 361.638 1329.68C361.804 1329.11 362.256 1328.45 362.891 1327.83C363.972 1326.76 365.618 1325.74 365.958 1325.5C367.251 1324.59 368.584 1323.75 369.94 1322.94C372.831 1321.23 375.83 1319.68 378.743 1317.97C376.248 1318.6 372.14 1320.22 369.189 1320.81C367.618 1321.12 366.282 1321.14 365.41 1320.87C363.868 1320.4 363.371 1319.51 363.326 1318.58C363.302 1318.09 363.437 1317.54 363.742 1317.01C364.179 1316.25 364.969 1315.48 365.526 1315.08C366.552 1314.34 369.041 1313.13 371.018 1311.84C371.67 1311.42 372.813 1310.91 372.681 1310.55C372.549 1310.2 367.251 1311.15 367.251 1311.15C366.943 1311.21 366.461 1311.33 366.022 1311.37C365.909 1311.4 365.789 1311.41 365.66 1311.42C365.317 1311.44 364.771 1311.3 364.586 1311.22Z" fill="#DF565B" fill-opacity="0.69"/>
<path d="M1317.53 161.886C1319.21 162.289 1318.85 163.239 1317.64 164.043C1315.32 165.591 1312.44 165.965 1310.46 165.801C1309.16 165.695 1308.38 165.09 1308.24 164.01C1308.13 163.183 1308.66 162.104 1309.65 161.044C1311 159.594 1313.23 158.049 1314.02 157.227C1314.05 157.192 1314.09 157.143 1314.13 157.084C1313.73 157.225 1313.27 157.44 1312.76 157.661C1310.28 158.757 1307.29 160.524 1305.72 161.039C1305.29 161.176 1302.58 162.096 1301.5 162.04C1300.55 161.99 1300.02 161.54 1299.78 161.058C1299.47 160.456 1299.49 159.786 1299.87 159.104C1300.43 158.075 1302.21 156.906 1302.76 156.452C1304.99 154.646 1307.33 152.999 1309.55 151.217C1310.47 150.48 1311.37 149.721 1312.23 148.913C1312.41 148.739 1313.25 148.056 1313.87 147.322C1313.92 147.271 1313.96 147.213 1314.01 147.151C1313.7 147.196 1313.39 147.307 1313.09 147.435C1311.81 147.968 1310.61 148.917 1309.73 149.481C1307.25 151.065 1304.85 152.794 1302.34 154.351C1300.6 155.426 1298.81 156.424 1296.89 157.23C1295.78 157.724 1292.78 158.926 1290.51 159.125C1288.74 159.28 1287.36 158.762 1286.65 157.674C1286.08 156.801 1286.2 155.686 1286.8 154.534C1287.64 152.925 1289.63 151.211 1290.43 150.606C1291.94 149.485 1293.53 148.437 1295.22 147.489C1297.59 146.15 1300.11 144.983 1302.36 143.52C1303.27 142.935 1304.14 142.319 1304.95 141.636C1305.35 141.296 1306.81 140.156 1307.91 138.944C1308.21 138.612 1308.35 138.116 1308.52 137.779C1308.37 137.784 1308.22 137.799 1308.08 137.807C1307.29 137.851 1306.48 138.068 1305.92 138.246C1303.88 138.896 1302.17 139.551 1300.54 140.358C1298.94 141.148 1297.43 142.09 1295.72 143.307L1291.54 145.909C1288.96 147.594 1286.73 144.727 1289.17 143.12L1293.25 140.532C1295.19 139.233 1296.92 138.242 1298.72 137.412C1300.55 136.569 1302.44 135.885 1304.72 135.222C1305.71 134.933 1307.22 134.612 1308.58 134.677C1309.86 134.739 1311.01 135.122 1311.79 135.905C1312.49 136.613 1312.67 137.694 1312.01 138.956C1311.08 140.763 1308.16 143.337 1307.53 143.911C1306.21 145.131 1304.75 146.204 1303.21 147.203C1301.17 148.528 1299.03 149.765 1296.87 150.952C1295.49 151.71 1294.08 152.412 1292.78 153.243C1292.37 153.498 1291.58 154.04 1290.85 154.704C1290.44 155.083 1290.03 155.485 1289.76 155.901C1289.67 156.037 1289.58 156.165 1289.54 156.297C1289.45 156.539 1289.73 156.495 1289.97 156.55C1290.52 156.576 1291.16 156.5 1291.79 156.368C1293.39 156.036 1295.01 155.408 1295.73 155.117C1297.51 154.365 1299.18 153.441 1300.79 152.43C1303.28 150.866 1305.63 149.107 1308.07 147.503C1309.24 146.731 1310.94 145.401 1312.66 144.87C1313.7 144.548 1314.75 144.495 1315.75 144.811C1316.99 145.199 1317.36 145.965 1317.26 146.88C1317.21 147.355 1316.94 147.93 1316.53 148.499C1315.82 149.468 1314.66 150.471 1314.42 150.701C1313.52 151.573 1312.58 152.396 1311.62 153.193C1309.56 154.89 1307.4 156.462 1305.33 158.162C1307.22 157.371 1310.26 155.607 1312.52 154.8C1313.72 154.371 1314.78 154.204 1315.51 154.316C1316.8 154.514 1317.32 155.163 1317.49 155.898C1317.58 156.282 1317.55 156.732 1317.38 157.189C1317.14 157.846 1316.62 158.545 1316.24 158.93C1315.53 159.639 1313.72 160.881 1312.33 162.136C1311.88 162.55 1311.04 163.085 1311.2 163.352C1311.35 163.618 1315.42 162.25 1315.42 162.25C1315.66 162.168 1316.03 162.02 1316.37 161.935C1316.46 161.901 1316.55 161.873 1316.65 161.852C1316.92 161.797 1317.37 161.848 1317.53 161.886Z" fill="#DF565B" fill-opacity="0.69"/>
<path d="M602.73 694.231C604.319 694.611 603.974 695.508 602.834 696.268C600.643 697.73 597.922 698.083 596.046 697.929C594.824 697.828 594.087 697.257 593.952 696.237C593.848 695.455 594.346 694.436 595.283 693.435C596.564 692.066 598.662 690.606 599.409 689.829C599.44 689.797 599.476 689.75 599.513 689.695C599.134 689.828 598.7 690.03 598.227 690.239C595.882 691.275 593.053 692.944 591.569 693.43C591.17 693.56 588.606 694.429 587.587 694.376C586.691 694.329 586.189 693.904 585.959 693.448C585.671 692.88 585.689 692.247 586.042 691.603C586.574 690.631 588.258 689.526 588.781 689.098C590.882 687.391 593.092 685.836 595.191 684.152C596.058 683.456 596.908 682.739 597.719 681.976C597.894 681.811 598.683 681.166 599.275 680.474C599.317 680.425 599.36 680.37 599.402 680.312C599.113 680.355 598.821 680.459 598.53 680.58C597.328 681.084 596.189 681.98 595.356 682.513C593.02 684.009 590.752 685.642 588.375 687.113C586.733 688.129 585.041 689.071 583.23 689.832C582.182 690.299 579.351 691.435 577.207 691.622C575.532 691.769 574.231 691.279 573.561 690.251C573.023 689.427 573.129 688.374 573.7 687.285C574.497 685.765 576.375 684.147 577.126 683.575C578.553 682.516 580.061 681.527 581.652 680.631C583.897 679.366 586.269 678.263 588.402 676.882C589.255 676.33 590.079 675.747 590.847 675.102C591.226 674.781 592.603 673.704 593.642 672.559C593.926 672.246 594.056 671.777 594.213 671.459C594.078 671.463 593.936 671.477 593.798 671.485C593.053 671.527 592.294 671.732 591.765 671.9C589.833 672.514 588.221 673.133 586.68 673.895C585.172 674.641 583.737 675.531 582.127 676.681L578.178 679.139C575.74 680.73 573.632 678.022 575.935 676.504L579.791 674.059C581.624 672.832 583.256 671.896 584.958 671.112C586.684 670.316 588.477 669.67 590.628 669.044C591.564 668.77 592.992 668.468 594.271 668.529C595.483 668.587 596.572 668.949 597.304 669.689C597.966 670.357 598.136 671.379 597.518 672.571C596.633 674.278 593.88 676.709 593.28 677.251C592.037 678.404 590.655 679.418 589.201 680.361C587.271 681.612 585.249 682.781 583.21 683.902C581.907 684.618 580.579 685.281 579.349 686.066C578.966 686.307 578.215 686.819 577.53 687.447C577.14 687.804 576.752 688.184 576.496 688.577C576.412 688.705 576.329 688.826 576.285 688.951C576.205 689.18 576.464 689.138 576.697 689.19C577.216 689.214 577.814 689.143 578.417 689.018C579.925 688.705 581.455 688.111 582.138 687.836C583.821 687.126 585.397 686.253 586.917 685.299C589.269 683.821 591.49 682.159 593.792 680.645C594.898 679.915 596.507 678.659 598.127 678.157C599.11 677.852 600.104 677.803 601.049 678.101C602.215 678.468 602.564 679.191 602.472 680.056C602.424 680.504 602.173 681.048 601.78 681.585C601.111 682.5 600.012 683.448 599.789 683.665C598.941 684.489 598.054 685.267 597.144 686.019C595.204 687.622 593.16 689.107 591.203 690.712C592.991 689.966 595.857 688.299 597.993 687.537C599.129 687.132 600.13 686.974 600.82 687.08C602.041 687.267 602.533 687.88 602.691 688.574C602.774 688.936 602.746 689.362 602.589 689.794C602.363 690.414 601.872 691.074 601.508 691.438C600.838 692.108 599.131 693.281 597.82 694.467C597.388 694.858 596.598 695.363 596.745 695.615C596.892 695.867 600.739 694.574 600.739 694.574C600.962 694.497 601.309 694.357 601.633 694.276C601.713 694.244 601.802 694.218 601.897 694.198C602.152 694.146 602.581 694.195 602.73 694.231Z" fill="#FFAF3B"/>
<path fill-rule="evenodd" clip-rule="evenodd" d="M11.185 528.455C11.3566 528.287 10.9115 526.326 10.8311 525.545C10.5939 523.24 10.4702 520.954 10.4702 518.635C10.4702 517.816 10.4152 516.507 11.3725 516.084C12.5703 515.555 12.9963 517.677 13.117 518.21C13.6394 520.517 13.293 525.383 16.1851 526.661C17.1905 527.105 24.9572 524.599 26.0509 524.322C27.4023 523.981 28.2308 523.843 29.4533 524.203C30.1416 524.405 30.1444 525.791 29.6604 526.076C27.707 527.227 25.2787 528.065 23.1634 529C20.8928 530.003 19.6281 529.91 19.2532 532.561C19.0541 533.967 19.7841 535.234 20.1555 536.547C20.5844 538.063 20.8038 539.523 20.9976 541.065C21.131 542.124 21.3131 543.975 20.3962 544.785C19.3025 545.752 18.2153 543.17 18.05 542.659C16.8176 538.848 16.6594 534.868 12.9365 532.401C12.1473 531.878 10.6042 532.212 9.74812 532.401C8.82033 532.606 3.20688 534.569 1.32604 534.846C0.310335 534.996 -0.267844 533.836 0.122997 533.145C0.53526 532.417 2.49331 531.912 3.31136 531.551C4.36951 531.083 5.47776 530.71 6.55975 530.275C8.09745 529.658 10.4187 529.202 11.185 528.455Z" fill="#FFAF3B"/>
<path fill-rule="evenodd" clip-rule="evenodd" d="M11.3623 8.23454C12.172 7.01085 13.696 6.62641 14.9145 7.24339C15.5273 7.55367 15.8998 7.96807 16.0657 8.26134C16.0658 8.26125 16.0771 8.2775 16.1148 8.30703C16.4523 8.57119 16.8629 8.66041 17.1541 9.00873C17.4753 9.393 17.7184 9.78364 17.8543 10.2236C17.9912 10.6668 18.0079 11.1226 17.9314 11.6219C17.923 11.6769 17.9147 11.7335 17.9062 11.7913C17.8374 12.2595 17.7563 12.8116 17.4967 13.3389C17.3903 13.555 17.2717 13.7417 17.1131 13.9116C16.9558 14.08 16.7787 14.2109 16.5815 14.3345C16.5291 14.3673 16.4761 14.4031 16.4119 14.4466C16.4009 14.454 16.3896 14.4617 16.3778 14.4696C16.3023 14.5206 16.2137 14.5799 16.1193 14.636C15.9339 14.7461 15.6855 14.8696 15.3878 14.9066C14.4356 15.025 13.0566 15.0705 12.0404 14.3927C11.4346 13.9885 11.1692 13.3026 11.0297 12.7254C10.9198 12.2707 10.867 11.78 10.8262 11.4009C10.8146 11.2923 10.8039 11.1929 10.7931 11.1061C10.683 10.2184 10.8013 9.0823 11.3623 8.23454ZM14.3709 8.24766C13.7149 7.91546 12.8462 8.09472 12.3494 8.8456C11.9843 9.39734 11.8661 10.2402 11.9567 10.971C11.9714 11.0893 11.9845 11.2106 11.9979 11.3338C12.0378 11.7029 12.0796 12.0898 12.1709 12.4674C12.2945 12.9788 12.4748 13.3054 12.7058 13.4595C13.3303 13.8761 14.3073 13.8981 15.2384 13.7823C15.2956 13.7752 15.3774 13.7464 15.5059 13.6701C15.5684 13.6329 15.6326 13.5904 15.7068 13.5403C15.7167 13.5336 15.7268 13.5267 15.7372 13.5197C15.8004 13.4769 15.8728 13.4279 15.9442 13.3831C16.0937 13.2894 16.1795 13.2201 16.2433 13.1518C16.3057 13.0851 16.3661 12.9987 16.4386 12.8515C16.6167 12.4898 16.6731 12.1142 16.7465 11.6248C16.7548 11.5699 16.7632 11.5136 16.7721 11.4557C16.829 11.0841 16.8093 10.8004 16.7314 10.5481C16.6525 10.2926 16.5022 10.0318 16.2427 9.72143C16.1795 9.64584 16.1342 9.61477 16.0798 9.58504C16.0431 9.56492 16.0033 9.54621 15.9367 9.51483C15.5868 9.35007 15.2299 9.14668 15.0376 8.80562C14.9872 8.71628 14.7869 8.4583 14.3709 8.24766Z" fill="#FFAF3B"/>
<path fill-rule="evenodd" clip-rule="evenodd" d="M13.7392 3.58686C13.441 3.57399 13.2034 3.55087 12.9949 3.52896C12.9702 3.52636 12.9454 3.52373 12.9207 3.52109C12.7415 3.502 12.5616 3.48285 12.3911 3.47802C11.9482 3.46548 11.569 3.54841 11.0402 3.81015C10.9896 3.83516 10.9359 3.86103 10.8796 3.88809C10.5156 4.06324 10.0476 4.28846 9.6783 4.65397C9.64123 4.69066 9.60374 4.72758 9.56595 4.7648C8.92867 5.39251 8.20515 6.10515 7.9482 7.21494C7.83104 7.721 7.81008 8.23887 7.8145 8.72251C7.81656 8.94801 7.82434 9.1734 7.83176 9.38867C7.83232 9.40487 7.83288 9.42101 7.83343 9.43709C7.84143 9.66992 7.84851 9.89066 7.84851 10.1046C7.84851 10.6816 8.00012 11.2389 8.14784 11.7083C8.20407 11.887 8.24616 12.075 8.29048 12.2864C8.2965 12.3151 8.30259 12.3444 8.30878 12.3742C8.34653 12.5558 8.38814 12.756 8.44087 12.9531C8.56478 13.4164 8.74126 13.8587 8.91377 14.2712C8.94835 14.354 8.98261 14.4351 9.01638 14.5151C9.15534 14.8443 9.28589 15.1535 9.3961 15.4691C9.5619 15.9438 9.7695 16.3938 10.0311 16.8299C10.218 17.1414 10.4615 17.3621 10.6468 17.5301C10.6946 17.5734 10.7385 17.6132 10.7765 17.6501C11.1435 18.0062 11.6237 18.1645 12.0334 18.2495C12.3531 18.3158 12.6946 18.3484 12.9676 18.3745C13.0418 18.3816 13.111 18.3882 13.1733 18.3949C14.0662 18.4904 15.0687 18.4615 15.9388 18.3646C16.2991 18.3245 16.8244 18.2561 17.2639 18.0118C17.3805 17.9469 17.4928 17.8996 17.6331 17.8404C17.7114 17.8074 17.7984 17.7708 17.8997 17.7254C18.1457 17.6151 18.4512 17.4606 18.7017 17.204C18.7857 17.118 18.8656 17.0478 18.9612 16.9638C19.0197 16.9124 19.084 16.8558 19.1588 16.7873C19.3317 16.6289 19.534 16.4271 19.6882 16.1688C19.8603 15.8806 20.0517 15.6041 20.256 15.3143C20.2819 15.2777 20.3079 15.2408 20.3342 15.2037C20.5124 14.9516 20.6997 14.6866 20.8759 14.4113C21.5264 13.3946 21.521 12.0833 21.3697 11.0779C21.2062 9.99102 20.8352 8.76031 20.1884 7.78729C19.6567 6.98733 19.0573 6.14865 18.2149 5.50249C18.0571 5.38143 17.8982 5.25887 17.7386 5.13572C17.3229 4.81501 16.9019 4.49023 16.48 4.17701C15.8785 3.73046 14.9083 3.48956 14.1692 3.55781C14.1574 3.5589 14.1458 3.55997 14.1344 3.56103C13.9838 3.575 13.8632 3.58618 13.7392 3.58686ZM12.3575 4.63987C12.1394 4.63369 11.9513 4.65874 11.5653 4.84977C11.4987 4.88277 11.4349 4.91385 11.3739 4.9436C10.9996 5.12617 10.7282 5.25854 10.5087 5.47585C10.4937 5.49066 10.4788 5.50537 10.4641 5.52C9.77084 6.20587 9.27241 6.69901 9.09284 7.47458C9.00612 7.84912 8.98465 8.26097 8.98877 8.712C8.99069 8.92229 8.99798 9.13377 9.0055 9.3521C9.00602 9.36724 9.00655 9.3824 9.00707 9.3976C9.01502 9.62904 9.02282 9.8683 9.02282 10.1046C9.02282 10.4958 9.12722 10.9121 9.26902 11.3627C9.34368 11.5999 9.39541 11.8362 9.44029 12.0502C9.44701 12.0822 9.45355 12.1137 9.45999 12.1446C9.49812 12.3277 9.53243 12.4925 9.57608 12.6557C9.67855 13.0388 9.82887 13.4203 9.99882 13.8267C10.0298 13.9008 10.0616 13.9761 10.0939 14.0525C10.234 14.3842 10.3824 14.7357 10.506 15.0894C10.6472 15.4937 10.822 15.8716 11.0408 16.2364C11.1324 16.3891 11.2141 16.4636 11.3631 16.5997C11.4271 16.6581 11.5036 16.7279 11.5986 16.8201C11.7285 16.9461 11.9468 17.0439 12.2744 17.1119C12.524 17.1637 12.7754 17.1879 13.0386 17.2132C13.1242 17.2214 13.2111 17.2298 13.2995 17.2393C14.0867 17.3235 15.0002 17.2994 15.8075 17.2095C16.1796 17.1681 16.4812 17.1138 16.6887 16.9984C16.8616 16.9022 17.0729 16.8128 17.2439 16.7403C17.308 16.7132 17.3665 16.6884 17.4152 16.6666C17.6308 16.5699 17.7672 16.4886 17.8574 16.3962C17.9701 16.2808 18.11 16.1572 18.227 16.054C18.2772 16.0096 18.3232 15.969 18.361 15.9344C18.5105 15.7974 18.6115 15.6876 18.6772 15.5775C18.8739 15.2481 19.0877 14.9403 19.2931 14.649C19.32 14.6109 19.3467 14.5732 19.3731 14.5357C19.5526 14.2818 19.7231 14.0405 19.8838 13.7894C20.3033 13.1337 20.3473 12.1733 20.2082 11.2491C20.0603 10.2658 19.7303 9.21285 19.2074 8.42612C18.6815 7.63494 18.1717 6.93991 17.4955 6.42121C17.332 6.29574 17.1697 6.17056 17.0082 6.04595C16.5957 5.72771 16.188 5.41315 15.7754 5.10687C15.3924 4.82252 14.7562 4.67097 14.2783 4.71511C14.2646 4.71637 14.2507 4.71767 14.2364 4.71901C14.0903 4.73267 13.9134 4.74922 13.7273 4.74922H13.7149L13.7025 4.7487C13.3617 4.73441 13.0919 4.70801 12.8709 4.68478C12.8451 4.68207 12.8203 4.67945 12.7964 4.67692C12.6086 4.65705 12.4787 4.6433 12.3575 4.63987Z" fill="#FFAF3B"/>
<path fill-rule="evenodd" clip-rule="evenodd" d="M13.3839 0H13.3917C14.0342 0 14.8301 0.0049373 15.5779 0.216594C15.9333 0.31717 16.3021 0.36003 16.7258 0.40926C16.7962 0.417441 16.8681 0.425797 16.9417 0.434624C17.4351 0.493783 17.9928 0.573838 18.5331 0.799277C18.8362 0.925726 19.1219 0.988419 19.4662 1.06399C19.6051 1.09446 19.7534 1.12702 19.9163 1.1667C20.6476 1.34482 21.3971 1.78462 21.943 2.14836C22.002 2.18768 22.0658 2.22938 22.1329 2.2732C22.3636 2.42404 22.6328 2.60003 22.8783 2.7906C23.1992 3.03975 23.5351 3.35384 23.7631 3.75707C23.7996 3.82172 23.8365 3.88678 23.8736 3.95224C24.1882 4.50713 24.519 5.09072 24.7993 5.6952C24.815 5.72912 24.8321 5.76499 24.85 5.80269C24.9666 6.04788 25.1201 6.37054 25.183 6.73605C25.2028 6.85168 25.2181 6.95383 25.232 7.04746C25.2605 7.23873 25.2837 7.3945 25.3307 7.5572C25.3597 7.65755 25.3971 7.75146 25.4467 7.87622C25.4543 7.89521 25.4621 7.91491 25.4702 7.93545C25.5274 8.07972 25.5969 8.26088 25.6416 8.46626C25.6609 8.55519 25.6821 8.64813 25.704 8.74404C25.7692 9.02981 25.8404 9.34193 25.8865 9.65273C26.0686 10.8798 26.017 12.2615 25.835 13.4572C25.8158 13.5836 25.7985 13.7258 25.7801 13.8775C25.7325 14.2701 25.6771 14.7261 25.5599 15.1352C25.4409 15.5508 25.1876 15.8992 24.9853 16.1639C24.9433 16.2189 24.9033 16.2706 24.8653 16.3196C24.6983 16.5353 24.5712 16.6996 24.482 16.8736C24.0269 17.7615 23.4667 18.5451 22.8574 19.2906C21.7022 20.7043 20.4319 21.8459 18.6037 22.4739C17.9274 22.7062 17.1919 22.9374 16.3953 22.9821C15.8946 23.0102 15.4016 22.9994 14.9293 22.989C14.763 22.9853 14.5993 22.9817 14.4388 22.9799C13.8051 22.9727 13.1674 22.9142 12.5651 22.8555C12.3922 22.8387 12.2141 22.841 11.9986 22.8438C11.9452 22.8445 11.8896 22.8453 11.8311 22.8457C11.5592 22.848 11.2328 22.8439 10.9121 22.7707C9.88608 22.5365 8.98194 22.2175 8.13133 21.4238C7.72849 21.0479 7.50184 20.6 7.31386 20.2124C7.13553 19.8446 6.90346 19.5143 6.63175 19.1305C6.07671 18.3465 5.58657 17.476 5.13347 16.6712L5.103 16.6171C4.5634 15.6589 4.12729 14.6451 3.74413 13.6405C3.71007 13.5512 3.67451 13.4599 3.6382 13.3666C3.34757 12.6199 3.00824 11.7481 3.00067 10.807C2.98733 9.14779 3.16786 7.34886 3.9533 5.76089C4.26963 5.12136 4.71272 4.58691 5.11237 4.10488C5.20567 3.99235 5.2966 3.88267 5.38299 3.77518C5.92903 3.09583 6.47914 2.54149 7.2375 2.03822C7.70025 1.73113 8.20371 1.51567 8.68018 1.33357C8.85664 1.26613 9.02452 1.20486 9.18701 1.14556C9.48424 1.03708 9.76343 0.935194 10.0441 0.814159C11.1359 0.343245 12.1161 0.034177 13.3761 0.000209491L13.3839 0ZM13.3996 1.17911C12.3431 1.20869 11.5155 1.46145 10.5018 1.89867C10.1928 2.03196 9.85694 2.15474 9.53904 2.27095C9.38427 2.32753 9.23377 2.38255 9.09268 2.43648C8.639 2.60987 8.23153 2.78904 7.87763 3.0239C7.24538 3.44348 6.7812 3.90544 6.28827 4.51872C6.17815 4.65572 6.07146 4.78486 5.96869 4.90926C5.57906 5.38089 5.24587 5.7842 4.99658 6.28821C4.33215 7.6315 4.1543 9.21138 4.16706 10.7974C4.17276 11.5059 4.42719 12.1652 4.72611 12.9397C4.76106 13.0302 4.79662 13.1224 4.83246 13.2164C5.20461 14.1921 5.61687 15.1462 6.1167 16.0338L6.13372 16.0641C6.59644 16.8858 7.0609 17.7106 7.58027 18.4442L7.58988 18.4578C7.8506 18.826 8.13628 19.2295 8.36121 19.6934C8.54823 20.079 8.69504 20.3451 8.92249 20.5574C9.5568 21.1493 10.2317 21.4066 11.169 21.6206C11.3472 21.6612 11.5558 21.6688 11.8217 21.6667C11.8645 21.6663 11.9096 21.6657 11.9565 21.665C12.176 21.6619 12.434 21.6582 12.677 21.6818C13.281 21.7407 13.8736 21.7943 14.4519 21.8009C14.6392 21.803 14.8189 21.807 14.9941 21.8108C15.4517 21.8208 15.8784 21.8302 16.3306 21.8048C16.9552 21.7697 17.56 21.587 18.2284 21.3575C19.7758 20.8259 20.8786 19.8608 21.9581 18.5397C22.5362 17.8323 23.0421 17.1197 23.4463 16.3312C23.5909 16.049 23.8015 15.7786 23.9704 15.5617C24.0028 15.5201 24.0338 15.4803 24.0624 15.4429C24.2649 15.178 24.3884 14.9859 24.4395 14.8074C24.5298 14.4919 24.5659 14.1912 24.6077 13.8436C24.6286 13.6694 24.6509 13.4834 24.6822 13.2779C24.8509 12.1692 24.8937 10.9104 24.733 9.82764C24.6942 9.56597 24.638 9.31957 24.576 9.04775C24.5521 8.94293 24.5273 8.83432 24.5024 8.71961C24.4799 8.6162 24.4422 8.51224 24.3873 8.37357C24.3808 8.35707 24.3739 8.33979 24.3667 8.32181C24.3185 8.20101 24.2576 8.04859 24.2111 7.88802C24.1408 7.64462 24.0987 7.36316 24.0653 7.14021C24.0541 7.06492 24.0438 6.9963 24.0338 6.93807C24.0006 6.74495 23.9243 6.58237 23.8053 6.32869C23.7857 6.28699 23.765 6.24282 23.7431 6.19565C23.4845 5.63782 23.1783 5.0975 22.8605 4.53673C22.8239 4.47213 22.7872 4.40727 22.7503 4.34207C22.6333 4.13511 22.436 3.93393 22.1678 3.72575C21.9634 3.5671 21.7499 3.42742 21.5268 3.28145C21.4527 3.23292 21.3774 3.1837 21.3011 3.13286C20.7761 2.78309 20.1674 2.4407 19.6431 2.313C19.5374 2.28725 19.4234 2.26228 19.3036 2.23607C18.9276 2.15372 18.4953 2.05908 18.0882 1.88921C17.7084 1.73078 17.2909 1.66386 16.8043 1.60552C16.74 1.59781 16.674 1.59022 16.6065 1.58247C16.1882 1.53438 15.7159 1.48009 15.2634 1.35203C14.6941 1.1909 14.056 1.1792 13.3996 1.17911Z" fill="#FFAF3B"/>
<path fill-rule="evenodd" clip-rule="evenodd" d="M753.362 1238.17C754.559 1236.36 756.812 1235.8 758.613 1236.71C759.519 1237.17 760.069 1237.78 760.315 1238.21C760.315 1238.21 760.332 1238.24 760.387 1238.28C760.886 1238.67 761.493 1238.8 761.924 1239.32C762.398 1239.89 762.758 1240.46 762.959 1241.11C763.161 1241.77 763.186 1242.44 763.073 1243.18C763.06 1243.26 763.048 1243.35 763.035 1243.43C762.934 1244.12 762.814 1244.94 762.43 1245.72C762.273 1246.04 762.097 1246.31 761.863 1246.57C761.631 1246.81 761.369 1247.01 761.077 1247.19C761 1247.24 760.921 1247.29 760.826 1247.36C760.81 1247.37 760.793 1247.38 760.776 1247.39C760.664 1247.47 760.533 1247.55 760.394 1247.64C760.12 1247.8 759.753 1247.98 759.313 1248.04C757.905 1248.21 755.866 1248.28 754.364 1247.28C753.469 1246.68 753.076 1245.67 752.87 1244.81C752.708 1244.14 752.63 1243.41 752.569 1242.85C752.552 1242.69 752.536 1242.55 752.52 1242.42C752.358 1241.11 752.533 1239.43 753.362 1238.17ZM757.809 1238.19C756.84 1237.7 755.555 1237.97 754.821 1239.08C754.281 1239.89 754.106 1241.14 754.241 1242.22C754.262 1242.39 754.282 1242.57 754.301 1242.75C754.36 1243.3 754.422 1243.87 754.557 1244.43C754.74 1245.19 755.006 1245.67 755.348 1245.9C756.271 1246.51 757.715 1246.55 759.092 1246.37C759.176 1246.36 759.297 1246.32 759.487 1246.21C759.58 1246.15 759.674 1246.09 759.784 1246.02C759.799 1246.01 759.814 1246 759.829 1245.99C759.922 1245.92 760.029 1245.85 760.135 1245.78C760.356 1245.65 760.483 1245.54 760.577 1245.44C760.669 1245.34 760.759 1245.22 760.866 1245C761.129 1244.46 761.212 1243.91 761.321 1243.18C761.333 1243.1 761.346 1243.02 761.359 1242.93C761.443 1242.39 761.414 1241.97 761.299 1241.59C761.182 1241.22 760.96 1240.83 760.576 1240.37C760.483 1240.26 760.416 1240.21 760.336 1240.17C760.281 1240.14 760.222 1240.11 760.124 1240.07C759.607 1239.82 759.079 1239.52 758.795 1239.02C758.72 1238.89 758.424 1238.5 757.809 1238.19Z" fill="#FFAF3B"/>
<path fill-rule="evenodd" clip-rule="evenodd" d="M756.875 1231.3C756.435 1231.28 756.084 1231.25 755.775 1231.22C755.739 1231.21 755.702 1231.21 755.665 1231.2C755.401 1231.18 755.135 1231.15 754.883 1231.14C754.228 1231.12 753.667 1231.25 752.886 1231.63C752.811 1231.67 752.731 1231.71 752.648 1231.75C752.11 1232.01 751.418 1232.34 750.872 1232.88C750.818 1232.93 750.762 1232.99 750.706 1233.04C749.764 1233.97 748.695 1235.02 748.315 1236.67C748.142 1237.41 748.111 1238.18 748.117 1238.89C748.12 1239.23 748.132 1239.56 748.143 1239.88C748.144 1239.9 748.144 1239.93 748.145 1239.95C748.157 1240.29 748.168 1240.62 748.168 1240.94C748.168 1241.79 748.392 1242.61 748.61 1243.31C748.693 1243.57 748.755 1243.85 748.821 1244.16C748.83 1244.2 748.839 1244.25 748.848 1244.29C748.904 1244.56 748.965 1244.86 749.043 1245.15C749.226 1245.83 749.487 1246.49 749.742 1247.1C749.793 1247.22 749.844 1247.34 749.894 1247.46C750.099 1247.94 750.292 1248.4 750.455 1248.87C750.7 1249.57 751.007 1250.23 751.394 1250.88C751.67 1251.34 752.03 1251.67 752.304 1251.91C752.375 1251.98 752.44 1252.04 752.496 1252.09C753.038 1252.62 753.748 1252.85 754.354 1252.98C754.826 1253.08 755.331 1253.12 755.735 1253.16C755.845 1253.17 755.947 1253.18 756.039 1253.19C757.359 1253.33 758.841 1253.29 760.127 1253.15C760.66 1253.09 761.436 1252.99 762.086 1252.63C762.258 1252.53 762.424 1252.46 762.632 1252.37C762.747 1252.32 762.876 1252.27 763.026 1252.2C763.389 1252.04 763.841 1251.81 764.211 1251.43C764.336 1251.3 764.454 1251.2 764.595 1251.08C764.681 1251 764.777 1250.92 764.887 1250.82C765.143 1250.58 765.442 1250.28 765.67 1249.9C765.924 1249.48 766.207 1249.07 766.509 1248.64C766.547 1248.58 766.586 1248.53 766.625 1248.47C766.888 1248.1 767.165 1247.71 767.425 1247.3C768.387 1245.8 768.379 1243.86 768.155 1242.38C767.914 1240.77 767.365 1238.95 766.409 1237.51C765.623 1236.33 764.737 1235.09 763.492 1234.13C763.258 1233.96 763.024 1233.77 762.788 1233.59C762.173 1233.12 761.551 1232.64 760.927 1232.17C760.038 1231.51 758.604 1231.16 757.511 1231.26C757.494 1231.26 757.477 1231.26 757.46 1231.26C757.237 1231.28 757.059 1231.3 756.875 1231.3ZM754.833 1232.86C754.511 1232.85 754.233 1232.89 753.662 1233.17C753.563 1233.22 753.469 1233.26 753.379 1233.31C752.826 1233.58 752.424 1233.77 752.1 1234.09C752.078 1234.12 752.056 1234.14 752.034 1234.16C751.009 1235.17 750.272 1235.9 750.007 1237.05C749.879 1237.6 749.847 1238.21 749.853 1238.88C749.856 1239.19 749.867 1239.5 749.878 1239.82C749.879 1239.85 749.879 1239.87 749.88 1239.89C749.892 1240.23 749.903 1240.59 749.903 1240.94C749.903 1241.52 750.058 1242.13 750.267 1242.8C750.378 1243.15 750.454 1243.5 750.521 1243.81C750.531 1243.86 750.54 1243.91 750.55 1243.95C750.606 1244.22 750.657 1244.47 750.721 1244.71C750.873 1245.27 751.095 1245.84 751.346 1246.44C751.392 1246.55 751.439 1246.66 751.487 1246.77C751.694 1247.26 751.913 1247.78 752.096 1248.31C752.305 1248.9 752.563 1249.46 752.887 1250C753.022 1250.23 753.143 1250.34 753.363 1250.54C753.458 1250.62 753.571 1250.73 753.711 1250.86C753.903 1251.05 754.226 1251.2 754.71 1251.3C755.079 1251.37 755.451 1251.41 755.84 1251.45C755.966 1251.46 756.095 1251.47 756.225 1251.48C757.389 1251.61 758.74 1251.57 759.933 1251.44C760.483 1251.38 760.929 1251.3 761.236 1251.13C761.491 1250.99 761.803 1250.85 762.056 1250.75C762.151 1250.71 762.238 1250.67 762.31 1250.64C762.628 1250.49 762.83 1250.37 762.963 1250.24C763.13 1250.07 763.337 1249.88 763.51 1249.73C763.584 1249.67 763.652 1249.61 763.708 1249.56C763.929 1249.35 764.078 1249.19 764.175 1249.03C764.466 1248.54 764.782 1248.09 765.086 1247.65C765.125 1247.6 765.165 1247.54 765.204 1247.49C765.469 1247.11 765.721 1246.76 765.959 1246.38C766.579 1245.41 766.644 1244 766.438 1242.63C766.22 1241.18 765.732 1239.62 764.959 1238.46C764.182 1237.29 763.428 1236.26 762.428 1235.49C762.187 1235.31 761.947 1235.12 761.708 1234.94C761.098 1234.47 760.495 1234 759.886 1233.55C759.319 1233.13 758.379 1232.9 757.672 1232.97C757.652 1232.97 757.632 1232.97 757.611 1232.98C757.394 1233 757.133 1233.02 756.858 1233.02H756.84L756.821 1233.02C756.317 1233 755.919 1232.96 755.592 1232.93C755.554 1232.92 755.517 1232.92 755.482 1232.91C755.204 1232.88 755.012 1232.86 754.833 1232.86Z" fill="#FFAF3B"/>
<path fill-rule="evenodd" clip-rule="evenodd" d="M756.35 1226H756.362C757.311 1226 758.488 1226.01 759.593 1226.32C760.119 1226.47 760.664 1226.53 761.29 1226.6C761.394 1226.62 761.501 1226.63 761.609 1226.64C762.339 1226.73 763.163 1226.85 763.962 1227.18C764.41 1227.37 764.832 1227.46 765.341 1227.57C765.547 1227.62 765.766 1227.67 766.007 1227.72C767.088 1227.99 768.196 1228.64 769.003 1229.18C769.09 1229.23 769.184 1229.3 769.283 1229.36C769.624 1229.58 770.022 1229.84 770.385 1230.13C770.86 1230.49 771.356 1230.96 771.693 1231.55C771.747 1231.65 771.802 1231.75 771.857 1231.84C772.322 1232.66 772.811 1233.53 773.225 1234.42C773.248 1234.47 773.273 1234.52 773.3 1234.58C773.472 1234.94 773.699 1235.42 773.792 1235.96C773.822 1236.13 773.844 1236.28 773.865 1236.42C773.907 1236.7 773.941 1236.93 774.011 1237.17C774.053 1237.32 774.109 1237.46 774.182 1237.64C774.193 1237.67 774.205 1237.7 774.217 1237.73C774.301 1237.94 774.404 1238.21 774.47 1238.52C774.499 1238.65 774.53 1238.78 774.562 1238.93C774.659 1239.35 774.764 1239.81 774.832 1240.27C775.101 1242.08 775.025 1244.13 774.756 1245.89C774.728 1246.08 774.702 1246.29 774.675 1246.51C774.604 1247.09 774.523 1247.77 774.349 1248.37C774.174 1248.99 773.799 1249.5 773.5 1249.89C773.438 1249.98 773.379 1250.05 773.323 1250.12C773.076 1250.44 772.888 1250.69 772.756 1250.94C772.083 1252.26 771.255 1253.41 770.354 1254.52C768.647 1256.61 766.769 1258.29 764.066 1259.22C763.067 1259.57 761.979 1259.91 760.802 1259.97C760.062 1260.02 759.333 1260 758.635 1259.98C758.389 1259.98 758.147 1259.97 757.909 1259.97C756.973 1259.96 756.03 1259.87 755.14 1259.79C754.884 1259.76 754.621 1259.76 754.302 1259.77C754.223 1259.77 754.141 1259.77 754.055 1259.77C753.653 1259.78 753.17 1259.77 752.696 1259.66C751.179 1259.31 749.843 1258.84 748.585 1257.67C747.99 1257.11 747.655 1256.45 747.377 1255.88C747.113 1255.34 746.77 1254.85 746.369 1254.28C745.548 1253.12 744.824 1251.83 744.154 1250.64L744.109 1250.56C743.311 1249.15 742.666 1247.65 742.1 1246.16C742.05 1246.03 741.997 1245.9 741.943 1245.76C741.514 1244.66 741.012 1243.37 741.001 1241.98C740.981 1239.52 741.248 1236.86 742.409 1234.52C742.877 1233.57 743.532 1232.78 744.123 1232.07C744.261 1231.9 744.395 1231.74 744.523 1231.58C745.33 1230.58 746.143 1229.76 747.264 1229.01C747.948 1228.56 748.692 1228.24 749.397 1227.97C749.658 1227.87 749.906 1227.78 750.146 1227.69C750.585 1227.53 750.998 1227.38 751.413 1227.2C753.027 1226.51 754.476 1226.05 756.339 1226L756.35 1226ZM756.373 1227.74C754.811 1227.79 753.588 1228.16 752.09 1228.81C751.633 1229 751.136 1229.19 750.666 1229.36C750.438 1229.44 750.215 1229.52 750.007 1229.6C749.336 1229.86 748.734 1230.12 748.21 1230.47C747.276 1231.09 746.59 1231.77 745.861 1232.68C745.698 1232.88 745.54 1233.07 745.389 1233.26C744.813 1233.95 744.32 1234.55 743.951 1235.3C742.969 1237.28 742.706 1239.62 742.725 1241.96C742.734 1243.01 743.11 1243.98 743.552 1245.13C743.603 1245.26 743.656 1245.4 743.709 1245.54C744.259 1246.98 744.868 1248.39 745.607 1249.7L745.632 1249.75C746.316 1250.96 747.003 1252.18 747.771 1253.27L747.785 1253.29C748.17 1253.83 748.593 1254.43 748.925 1255.11C749.202 1255.68 749.419 1256.08 749.755 1256.39C750.693 1257.26 751.69 1257.64 753.076 1257.96C753.339 1258.02 753.648 1258.03 754.041 1258.03C754.104 1258.03 754.171 1258.03 754.24 1258.03C754.565 1258.02 754.946 1258.02 755.305 1258.05C756.198 1258.14 757.074 1258.22 757.929 1258.23C758.206 1258.23 758.471 1258.24 758.73 1258.24C759.407 1258.26 760.038 1258.27 760.706 1258.23C761.629 1258.18 762.523 1257.91 763.511 1257.57C765.799 1256.79 767.429 1255.36 769.025 1253.41C769.88 1252.36 770.627 1251.31 771.225 1250.14C771.439 1249.72 771.75 1249.32 772 1249C772.048 1248.94 772.093 1248.88 772.136 1248.83C772.435 1248.44 772.618 1248.15 772.693 1247.89C772.827 1247.42 772.88 1246.98 772.942 1246.46C772.973 1246.21 773.006 1245.93 773.052 1245.63C773.301 1243.99 773.365 1242.13 773.127 1240.53C773.07 1240.14 772.987 1239.78 772.895 1239.37C772.86 1239.22 772.823 1239.06 772.786 1238.89C772.753 1238.74 772.697 1238.58 772.616 1238.38C772.606 1238.35 772.596 1238.33 772.586 1238.3C772.514 1238.12 772.424 1237.9 772.356 1237.66C772.252 1237.3 772.189 1236.88 772.14 1236.56C772.123 1236.44 772.108 1236.34 772.093 1236.26C772.044 1235.97 771.932 1235.73 771.756 1235.36C771.727 1235.29 771.696 1235.23 771.664 1235.16C771.281 1234.33 770.829 1233.54 770.359 1232.71C770.305 1232.61 770.251 1232.52 770.196 1232.42C770.023 1232.11 769.731 1231.82 769.335 1231.51C769.033 1231.27 768.717 1231.07 768.387 1230.85C768.278 1230.78 768.167 1230.71 768.054 1230.63C767.278 1230.11 766.378 1229.61 765.603 1229.42C765.447 1229.38 765.278 1229.34 765.101 1229.31C764.545 1229.18 763.906 1229.04 763.304 1228.79C762.743 1228.56 762.126 1228.46 761.406 1228.37C761.311 1228.36 761.214 1228.35 761.114 1228.34C760.496 1228.27 759.797 1228.19 759.129 1228C758.287 1227.76 757.344 1227.74 756.373 1227.74Z" fill="#FFAF3B"/>
<path fill-rule="evenodd" clip-rule="evenodd" d="M364.544 403.383C365.565 401.84 367.486 401.355 369.023 402.133C369.795 402.524 370.265 403.047 370.474 403.417C370.474 403.417 370.488 403.437 370.536 403.474C370.961 403.807 371.479 403.92 371.846 404.359C372.251 404.844 372.558 405.336 372.729 405.891C372.902 406.45 372.923 407.024 372.827 407.654C372.816 407.723 372.805 407.795 372.795 407.868C372.708 408.458 372.606 409.154 372.278 409.819C372.144 410.091 371.995 410.327 371.795 410.541C371.596 410.753 371.373 410.918 371.124 411.074C371.058 411.116 370.992 411.161 370.911 411.216C370.897 411.225 370.882 411.235 370.868 411.245C370.772 411.309 370.661 411.384 370.542 411.454C370.308 411.593 369.995 411.749 369.619 411.796C368.419 411.945 366.68 412.002 365.399 411.148C364.635 410.638 364.3 409.773 364.124 409.045C363.986 408.472 363.919 407.853 363.868 407.375C363.853 407.238 363.84 407.113 363.826 407.004C363.687 405.884 363.836 404.452 364.544 403.383ZM368.337 403.4C367.51 402.981 366.415 403.207 365.788 404.153C365.328 404.849 365.179 405.912 365.293 406.833C365.312 406.982 365.328 407.135 365.345 407.291C365.395 407.756 365.448 408.244 365.563 408.72C365.719 409.365 365.946 409.777 366.238 409.971C367.025 410.496 368.257 410.524 369.431 410.378C369.503 410.369 369.606 410.333 369.768 410.236C369.847 410.19 369.928 410.136 370.022 410.073C370.034 410.064 370.047 410.056 370.06 410.047C370.14 409.993 370.231 409.931 370.321 409.875C370.509 409.757 370.618 409.669 370.698 409.583C370.777 409.499 370.853 409.39 370.944 409.204C371.169 408.748 371.24 408.275 371.333 407.658C371.343 407.588 371.354 407.517 371.365 407.444C371.437 406.976 371.412 406.618 371.313 406.3C371.214 405.978 371.024 405.649 370.697 405.258C370.618 405.162 370.56 405.123 370.492 405.086C370.446 405.06 370.395 405.037 370.311 404.997C369.87 404.79 369.42 404.533 369.178 404.103C369.114 403.99 368.862 403.665 368.337 403.4Z" fill="#FFAF3B"/>
<path fill-rule="evenodd" clip-rule="evenodd" d="M367.541 397.523C367.165 397.506 366.865 397.477 366.602 397.45C366.571 397.446 366.54 397.443 366.509 397.44C366.283 397.416 366.056 397.391 365.841 397.385C365.283 397.37 364.804 397.474 364.138 397.804C364.074 397.836 364.006 397.868 363.935 397.902C363.476 398.123 362.886 398.407 362.421 398.868C362.374 398.914 362.326 398.961 362.279 399.008C361.475 399.799 360.563 400.698 360.239 402.097C360.091 402.735 360.065 403.388 360.071 403.998C360.073 404.282 360.083 404.566 360.092 404.838C360.093 404.858 360.094 404.879 360.094 404.899C360.104 405.192 360.113 405.471 360.113 405.741C360.113 406.468 360.305 407.171 360.491 407.763C360.562 407.988 360.615 408.225 360.671 408.492C360.678 408.528 360.686 408.565 360.694 408.602C360.741 408.831 360.794 409.084 360.86 409.332C361.017 409.916 361.239 410.474 361.457 410.994C361.5 411.098 361.543 411.201 361.586 411.302C361.761 411.717 361.926 412.107 362.065 412.504C362.274 413.103 362.535 413.67 362.865 414.22C363.101 414.613 363.408 414.891 363.642 415.103C363.702 415.158 363.757 415.208 363.805 415.254C364.268 415.703 364.873 415.903 365.39 416.01C365.793 416.094 366.224 416.135 366.568 416.168C366.661 416.177 366.749 416.185 366.827 416.193C367.953 416.314 369.217 416.277 370.314 416.155C370.768 416.105 371.431 416.019 371.985 415.71C372.132 415.629 372.274 415.569 372.451 415.494C372.549 415.453 372.659 415.407 372.787 415.349C373.097 415.21 373.482 415.015 373.798 414.692C373.904 414.584 374.005 414.495 374.125 414.389C374.199 414.324 374.28 414.253 374.374 414.167C374.592 413.967 374.847 413.712 375.042 413.387C375.259 413.023 375.5 412.675 375.758 412.309C375.79 412.263 375.823 412.217 375.856 412.17C376.081 411.852 376.317 411.518 376.539 411.171C377.359 409.889 377.353 408.235 377.162 406.968C376.956 405.597 376.488 404.046 375.672 402.819C375.002 401.81 374.246 400.753 373.184 399.938C372.985 399.785 372.785 399.631 372.583 399.475C372.059 399.071 371.529 398.662 370.997 398.267C370.238 397.704 369.015 397.4 368.083 397.486C368.068 397.487 368.053 397.489 368.039 397.49C367.849 397.508 367.697 397.522 367.541 397.523ZM365.799 398.85C365.524 398.842 365.286 398.874 364.8 399.115C364.716 399.157 364.635 399.196 364.558 399.233C364.087 399.463 363.744 399.63 363.467 399.904C363.449 399.923 363.43 399.942 363.411 399.96C362.537 400.825 361.909 401.447 361.682 402.424C361.573 402.897 361.546 403.416 361.551 403.985C361.554 404.25 361.563 404.516 361.572 404.792C361.573 404.811 361.574 404.83 361.574 404.849C361.584 405.141 361.594 405.443 361.594 405.741C361.594 406.234 361.726 406.759 361.904 407.327C361.999 407.626 362.064 407.924 362.12 408.194C362.129 408.234 362.137 408.274 362.145 408.313C362.193 408.544 362.237 408.751 362.292 408.957C362.421 409.44 362.61 409.921 362.825 410.434C362.864 410.527 362.904 410.622 362.944 410.718C363.121 411.137 363.308 411.58 363.464 412.026C363.642 412.536 363.863 413.012 364.138 413.472C364.254 413.664 364.357 413.758 364.545 413.93C364.626 414.004 364.722 414.092 364.842 414.208C365.005 414.367 365.281 414.49 365.694 414.576C366.009 414.641 366.326 414.672 366.657 414.704C366.765 414.714 366.875 414.725 366.986 414.736C367.979 414.843 369.131 414.812 370.149 414.699C370.618 414.647 370.998 414.578 371.26 414.433C371.478 414.312 371.744 414.199 371.96 414.107C372.041 414.073 372.114 414.042 372.176 414.014C372.448 413.892 372.619 413.79 372.733 413.673C372.875 413.528 373.052 413.372 373.199 413.242C373.263 413.186 373.321 413.135 373.368 413.091C373.557 412.918 373.684 412.78 373.767 412.641C374.015 412.226 374.285 411.838 374.544 411.47C374.577 411.422 374.611 411.375 374.644 411.328C374.871 411.008 375.086 410.703 375.288 410.387C375.817 409.56 375.873 408.349 375.697 407.184C375.511 405.944 375.095 404.616 374.435 403.624C373.772 402.627 373.13 401.75 372.277 401.096C372.071 400.938 371.866 400.78 371.663 400.623C371.142 400.222 370.628 399.825 370.108 399.439C369.625 399.081 368.823 398.889 368.22 398.945C368.203 398.947 368.186 398.948 368.168 398.95C367.983 398.967 367.76 398.988 367.526 398.988H367.51L367.494 398.987C367.065 398.969 366.725 398.936 366.446 398.907C366.413 398.903 366.382 398.9 366.352 398.897C366.115 398.872 365.951 398.855 365.799 398.85Z" fill="#FFAF3B"/>
<path fill-rule="evenodd" clip-rule="evenodd" d="M367.093 393H367.103C367.913 393 368.916 393.006 369.859 393.273C370.307 393.4 370.772 393.454 371.306 393.516C371.395 393.526 371.486 393.537 371.579 393.548C372.201 393.623 372.904 393.724 373.585 394.008C373.967 394.167 374.328 394.246 374.762 394.342C374.937 394.38 375.124 394.421 375.329 394.471C376.251 394.696 377.196 395.25 377.885 395.709C377.959 395.758 378.039 395.811 378.124 395.866C378.415 396.056 378.754 396.278 379.064 396.519C379.469 396.833 379.892 397.229 380.18 397.737C380.226 397.819 380.272 397.901 380.319 397.983C380.715 398.683 381.133 399.419 381.486 400.181C381.506 400.224 381.527 400.269 381.55 400.316C381.697 400.626 381.891 401.032 381.97 401.493C381.995 401.639 382.014 401.768 382.032 401.886C382.068 402.127 382.097 402.323 382.156 402.529C382.193 402.655 382.24 402.774 382.302 402.931C382.312 402.955 382.322 402.98 382.332 403.006C382.404 403.187 382.492 403.416 382.548 403.675C382.572 403.787 382.599 403.904 382.627 404.025C382.709 404.385 382.799 404.779 382.857 405.171C383.087 406.718 383.021 408.46 382.792 409.968C382.768 410.127 382.746 410.306 382.723 410.498C382.663 410.993 382.593 411.568 382.445 412.084C382.295 412.607 381.976 413.047 381.721 413.38C381.668 413.45 381.617 413.515 381.569 413.577C381.359 413.849 381.198 414.056 381.086 414.275C380.512 415.395 379.806 416.383 379.038 417.323C377.581 419.105 375.979 420.545 373.674 421.337C372.822 421.629 371.894 421.921 370.89 421.977C370.258 422.013 369.637 421.999 369.041 421.986C368.832 421.981 368.625 421.977 368.423 421.975C367.624 421.966 366.82 421.892 366.06 421.818C365.842 421.797 365.618 421.8 365.346 421.803C365.279 421.804 365.209 421.805 365.135 421.805C364.792 421.808 364.38 421.803 363.976 421.711C362.682 421.416 361.542 421.013 360.47 420.013C359.962 419.539 359.676 418.974 359.439 418.485C359.214 418.021 358.922 417.605 358.579 417.121C357.879 416.133 357.261 415.035 356.69 414.02L356.652 413.952C355.971 412.744 355.421 411.466 354.938 410.199C354.895 410.086 354.85 409.971 354.805 409.853C354.438 408.912 354.01 407.813 354.001 406.626C353.984 404.534 354.212 402.266 355.202 400.264C355.601 399.457 356.16 398.783 356.663 398.176C356.781 398.034 356.896 397.896 357.005 397.76C357.693 396.903 358.387 396.204 359.343 395.57C359.926 395.183 360.561 394.911 361.162 394.681C361.384 394.596 361.596 394.519 361.801 394.444C362.176 394.308 362.528 394.179 362.882 394.027C364.258 393.433 365.494 393.043 367.083 393L367.093 393ZM367.113 394.487C365.78 394.524 364.737 394.843 363.459 395.394C363.069 395.562 362.646 395.717 362.245 395.863C362.05 395.935 361.86 396.004 361.682 396.072C361.11 396.291 360.596 396.517 360.15 396.813C359.353 397.342 358.768 397.924 358.146 398.698C358.007 398.87 357.873 399.033 357.743 399.19C357.252 399.785 356.832 400.293 356.517 400.929C355.68 402.622 355.455 404.614 355.472 406.614C355.479 407.507 355.799 408.339 356.176 409.315C356.22 409.429 356.265 409.546 356.31 409.664C356.78 410.894 357.3 412.097 357.93 413.217L357.951 413.255C358.535 414.291 359.12 415.331 359.775 416.256L359.787 416.273C360.116 416.737 360.476 417.246 360.76 417.831C360.996 418.317 361.181 418.653 361.467 418.92C362.267 419.666 363.118 419.991 364.3 420.261C364.525 420.312 364.788 420.322 365.123 420.319C365.177 420.318 365.234 420.318 365.293 420.317C365.57 420.313 365.895 420.308 366.201 420.338C366.963 420.412 367.71 420.48 368.439 420.488C368.676 420.491 368.902 420.496 369.123 420.501C369.7 420.513 370.238 420.525 370.808 420.493C371.596 420.449 372.358 420.218 373.201 419.929C375.152 419.259 376.543 418.042 377.904 416.376C378.633 415.484 379.27 414.586 379.78 413.591C379.962 413.236 380.228 412.895 380.441 412.621C380.482 412.569 380.521 412.519 380.557 412.471C380.812 412.137 380.968 411.895 381.032 411.67C381.146 411.272 381.192 410.893 381.244 410.455C381.271 410.235 381.299 410.001 381.338 409.742C381.551 408.344 381.605 406.757 381.402 405.391C381.354 405.061 381.283 404.751 381.205 404.408C381.174 404.276 381.143 404.139 381.112 403.994C381.083 403.864 381.036 403.733 380.967 403.558C380.958 403.537 380.95 403.515 380.941 403.493C380.88 403.34 380.803 403.148 380.744 402.946C380.656 402.639 380.603 402.284 380.561 402.003C380.546 401.908 380.533 401.821 380.521 401.748C380.479 401.504 380.383 401.3 380.233 400.98C380.208 400.927 380.182 400.871 380.154 400.812C379.828 400.109 379.442 399.427 379.042 398.72C378.995 398.639 378.949 398.557 378.903 398.475C378.755 398.214 378.506 397.96 378.168 397.698C377.91 397.498 377.641 397.322 377.36 397.137C377.266 397.076 377.172 397.014 377.075 396.95C376.413 396.509 375.646 396.077 374.985 395.916C374.851 395.884 374.708 395.852 374.557 395.819C374.083 395.716 373.538 395.596 373.024 395.382C372.545 395.182 372.019 395.098 371.405 395.024C371.324 395.015 371.241 395.005 371.156 394.995C370.629 394.935 370.033 394.866 369.463 394.705C368.745 394.502 367.94 394.487 367.113 394.487Z" fill="#FFAF3B"/>
<path fill-rule="evenodd" clip-rule="evenodd" d="M872.544 257.383C873.565 255.84 875.486 255.355 877.023 256.133C877.795 256.524 878.265 257.047 878.474 257.417C878.474 257.417 878.489 257.437 878.536 257.474C878.962 257.807 879.48 257.92 879.847 258.359C880.252 258.844 880.558 259.336 880.73 259.891C880.902 260.45 880.923 261.024 880.827 261.654C880.816 261.723 880.806 261.795 880.795 261.868C880.708 262.458 880.606 263.154 880.279 263.819C880.144 264.091 879.995 264.327 879.795 264.541C879.597 264.753 879.373 264.918 879.125 265.074C879.059 265.116 878.992 265.161 878.911 265.216C878.897 265.225 878.883 265.235 878.868 265.245C878.773 265.309 878.661 265.384 878.542 265.454C878.308 265.593 877.995 265.749 877.62 265.796C876.419 265.945 874.68 266.002 873.399 265.148C872.635 264.638 872.3 263.773 872.125 263.045C871.986 262.472 871.919 261.853 871.868 261.375C871.853 261.238 871.84 261.113 871.826 261.004C871.687 259.884 871.837 258.452 872.544 257.383ZM876.337 257.4C875.51 256.981 874.415 257.207 873.789 258.153C873.328 258.849 873.179 259.912 873.293 260.833C873.312 260.982 873.328 261.135 873.345 261.291C873.396 261.756 873.448 262.244 873.563 262.72C873.719 263.365 873.947 263.777 874.238 263.971C875.025 264.496 876.257 264.524 877.431 264.378C877.503 264.369 877.606 264.333 877.768 264.236C877.847 264.19 877.928 264.136 878.022 264.073C878.034 264.064 878.047 264.056 878.06 264.047C878.14 263.993 878.231 263.931 878.321 263.875C878.51 263.757 878.618 263.669 878.698 263.583C878.777 263.499 878.853 263.39 878.944 263.204C879.169 262.748 879.24 262.275 879.333 261.658C879.343 261.588 879.354 261.517 879.365 261.444C879.437 260.976 879.412 260.618 879.314 260.3C879.214 259.978 879.025 259.649 878.698 259.258C878.618 259.162 878.561 259.123 878.492 259.086C878.446 259.06 878.396 259.037 878.312 258.997C877.87 258.79 877.421 258.533 877.178 258.103C877.114 257.99 876.862 257.665 876.337 257.4Z" fill="#FFAF3B"/>
<path fill-rule="evenodd" clip-rule="evenodd" d="M875.541 251.523C875.165 251.506 874.865 251.477 874.602 251.45C874.571 251.446 874.54 251.443 874.509 251.44C874.283 251.416 874.056 251.391 873.841 251.385C873.283 251.37 872.804 251.474 872.138 251.804C872.074 251.836 872.006 251.868 871.935 251.902C871.476 252.123 870.886 252.407 870.421 252.868C870.374 252.914 870.326 252.961 870.279 253.008C869.475 253.799 868.563 254.698 868.239 256.097C868.091 256.735 868.065 257.388 868.071 257.998C868.073 258.282 868.083 258.566 868.092 258.838C868.093 258.858 868.094 258.879 868.094 258.899C868.104 259.192 868.113 259.471 868.113 259.741C868.113 260.468 868.305 261.171 868.491 261.763C868.562 261.988 868.615 262.225 868.671 262.492C868.678 262.528 868.686 262.565 868.694 262.602C868.741 262.831 868.794 263.084 868.86 263.332C869.017 263.916 869.239 264.474 869.457 264.994C869.5 265.098 869.543 265.201 869.586 265.302C869.761 265.717 869.926 266.107 870.065 266.504C870.274 267.103 870.535 267.67 870.865 268.22C871.101 268.613 871.408 268.891 871.642 269.103C871.702 269.158 871.757 269.208 871.805 269.254C872.268 269.703 872.873 269.903 873.39 270.01C873.793 270.094 874.224 270.135 874.568 270.168C874.661 270.177 874.749 270.185 874.827 270.193C875.953 270.314 877.217 270.277 878.314 270.155C878.768 270.105 879.431 270.019 879.985 269.71C880.132 269.629 880.274 269.569 880.451 269.494C880.549 269.453 880.659 269.407 880.787 269.349C881.097 269.21 881.482 269.015 881.798 268.692C881.904 268.584 882.005 268.495 882.125 268.389C882.199 268.324 882.28 268.253 882.374 268.167C882.592 267.967 882.847 267.712 883.042 267.387C883.259 267.023 883.5 266.675 883.758 266.309C883.79 266.263 883.823 266.217 883.856 266.17C884.081 265.852 884.317 265.518 884.539 265.171C885.359 263.889 885.353 262.235 885.162 260.968C884.956 259.597 884.488 258.046 883.672 256.819C883.002 255.81 882.246 254.753 881.184 253.938C880.985 253.785 880.785 253.631 880.583 253.475C880.059 253.071 879.529 252.662 878.997 252.267C878.238 251.704 877.015 251.4 876.083 251.486C876.068 251.487 876.053 251.489 876.039 251.49C875.849 251.508 875.697 251.522 875.541 251.523ZM873.799 252.85C873.524 252.842 873.286 252.874 872.8 253.115C872.716 253.157 872.635 253.196 872.558 253.233C872.087 253.463 871.744 253.63 871.467 253.904C871.449 253.923 871.43 253.942 871.411 253.96C870.537 254.825 869.909 255.447 869.682 256.424C869.573 256.897 869.546 257.416 869.551 257.985C869.554 258.25 869.563 258.516 869.572 258.792C869.573 258.811 869.574 258.83 869.574 258.849C869.584 259.141 869.594 259.443 869.594 259.741C869.594 260.234 869.726 260.759 869.904 261.327C869.999 261.626 870.064 261.924 870.12 262.194C870.129 262.234 870.137 262.274 870.145 262.313C870.193 262.544 870.237 262.751 870.292 262.957C870.421 263.44 870.61 263.921 870.825 264.434C870.864 264.527 870.904 264.622 870.944 264.718C871.121 265.137 871.308 265.58 871.464 266.026C871.642 266.536 871.863 267.012 872.138 267.472C872.254 267.664 872.357 267.758 872.545 267.93C872.626 268.004 872.722 268.092 872.842 268.208C873.005 268.367 873.281 268.49 873.694 268.576C874.009 268.641 874.326 268.672 874.657 268.704C874.765 268.714 874.875 268.725 874.986 268.736C875.979 268.843 877.131 268.812 878.149 268.699C878.618 268.647 878.998 268.578 879.26 268.433C879.478 268.312 879.744 268.199 879.96 268.107C880.041 268.073 880.114 268.042 880.176 268.014C880.448 267.892 880.619 267.79 880.733 267.673C880.875 267.528 881.052 267.372 881.199 267.242C881.263 267.186 881.321 267.135 881.368 267.091C881.557 266.918 881.684 266.78 881.767 266.641C882.015 266.226 882.285 265.838 882.544 265.47C882.577 265.422 882.611 265.375 882.644 265.328C882.871 265.008 883.086 264.703 883.288 264.387C883.817 263.56 883.873 262.349 883.697 261.184C883.511 259.944 883.095 258.616 882.435 257.624C881.772 256.627 881.13 255.75 880.277 255.096C880.071 254.938 879.866 254.78 879.663 254.623C879.142 254.222 878.628 253.825 878.108 253.439C877.625 253.081 876.823 252.889 876.22 252.945C876.203 252.947 876.186 252.948 876.168 252.95C875.983 252.967 875.76 252.988 875.526 252.988H875.51L875.494 252.987C875.065 252.969 874.725 252.936 874.446 252.907C874.413 252.903 874.382 252.9 874.352 252.897C874.115 252.872 873.951 252.855 873.799 252.85Z" fill="#FFAF3B"/>
<path fill-rule="evenodd" clip-rule="evenodd" d="M875.093 247H875.103C875.913 247 876.916 247.006 877.859 247.273C878.307 247.4 878.772 247.454 879.306 247.516C879.395 247.526 879.486 247.537 879.579 247.548C880.201 247.623 880.904 247.724 881.585 248.008C881.967 248.167 882.328 248.246 882.762 248.342C882.937 248.38 883.124 248.421 883.329 248.471C884.251 248.696 885.196 249.25 885.885 249.709C885.959 249.758 886.039 249.811 886.124 249.866C886.415 250.056 886.754 250.278 887.064 250.519C887.469 250.833 887.892 251.229 888.18 251.737C888.226 251.819 888.272 251.901 888.319 251.983C888.715 252.683 889.133 253.419 889.486 254.181C889.506 254.224 889.527 254.269 889.55 254.316C889.697 254.626 889.891 255.032 889.97 255.493C889.995 255.639 890.014 255.768 890.032 255.886C890.068 256.127 890.097 256.323 890.156 256.529C890.193 256.655 890.24 256.774 890.302 256.931C890.312 256.955 890.322 256.98 890.332 257.006C890.404 257.187 890.492 257.416 890.548 257.675C890.572 257.787 890.599 257.904 890.627 258.025C890.709 258.385 890.799 258.779 890.857 259.171C891.087 260.718 891.021 262.46 890.792 263.968C890.768 264.127 890.746 264.306 890.723 264.498C890.663 264.993 890.593 265.568 890.445 266.084C890.295 266.607 889.976 267.047 889.721 267.38C889.668 267.45 889.617 267.515 889.569 267.577C889.359 267.849 889.198 268.056 889.086 268.275C888.512 269.395 887.806 270.383 887.038 271.323C885.581 273.105 883.979 274.545 881.674 275.337C880.822 275.629 879.894 275.921 878.89 275.977C878.258 276.013 877.637 275.999 877.041 275.986C876.832 275.981 876.625 275.977 876.423 275.975C875.624 275.966 874.82 275.892 874.06 275.818C873.842 275.797 873.618 275.8 873.346 275.803C873.279 275.804 873.209 275.805 873.135 275.805C872.792 275.808 872.38 275.803 871.976 275.711C870.682 275.416 869.542 275.013 868.47 274.013C867.962 273.539 867.676 272.974 867.439 272.485C867.214 272.021 866.922 271.605 866.579 271.121C865.879 270.133 865.261 269.035 864.69 268.02L864.652 267.952C863.971 266.744 863.421 265.466 862.938 264.199C862.895 264.086 862.85 263.971 862.805 263.853C862.438 262.912 862.01 261.813 862.001 260.626C861.984 258.534 862.212 256.266 863.202 254.264C863.601 253.457 864.16 252.783 864.663 252.176C864.781 252.034 864.896 251.896 865.005 251.76C865.693 250.903 866.387 250.204 867.343 249.57C867.926 249.183 868.561 248.911 869.162 248.681C869.384 248.596 869.596 248.519 869.801 248.444C870.176 248.308 870.528 248.179 870.882 248.027C872.258 247.433 873.494 247.043 875.083 247L875.093 247ZM875.113 248.487C873.78 248.524 872.737 248.843 871.459 249.394C871.069 249.562 870.646 249.717 870.245 249.863C870.05 249.935 869.86 250.004 869.682 250.072C869.11 250.291 868.596 250.517 868.15 250.813C867.353 251.342 866.768 251.924 866.146 252.698C866.007 252.87 865.873 253.033 865.743 253.19C865.252 253.785 864.832 254.293 864.517 254.929C863.68 256.622 863.455 258.614 863.472 260.614C863.479 261.507 863.799 262.339 864.176 263.315C864.22 263.429 864.265 263.546 864.31 263.664C864.78 264.894 865.3 266.097 865.93 267.217L865.951 267.255C866.535 268.291 867.12 269.331 867.775 270.256L867.787 270.273C868.116 270.737 868.476 271.246 868.76 271.831C868.996 272.317 869.181 272.653 869.467 272.92C870.267 273.666 871.118 273.991 872.3 274.261C872.525 274.312 872.788 274.322 873.123 274.319C873.177 274.318 873.234 274.318 873.293 274.317C873.57 274.313 873.895 274.308 874.201 274.338C874.963 274.412 875.71 274.48 876.439 274.488C876.676 274.491 876.902 274.496 877.123 274.501C877.7 274.513 878.238 274.525 878.808 274.493C879.596 274.449 880.358 274.218 881.201 273.929C883.152 273.259 884.543 272.042 885.904 270.376C886.633 269.484 887.27 268.586 887.78 267.591C887.962 267.236 888.228 266.895 888.441 266.621C888.482 266.569 888.521 266.519 888.557 266.471C888.812 266.137 888.968 265.895 889.032 265.67C889.146 265.272 889.192 264.893 889.244 264.455C889.271 264.235 889.299 264.001 889.338 263.742C889.551 262.344 889.605 260.757 889.402 259.391C889.354 259.061 889.283 258.751 889.205 258.408C889.174 258.276 889.143 258.139 889.112 257.994C889.083 257.864 889.036 257.733 888.967 257.558C888.958 257.537 888.95 257.515 888.941 257.493C888.88 257.34 888.803 257.148 888.744 256.946C888.656 256.639 888.603 256.284 888.561 256.003C888.546 255.908 888.533 255.821 888.521 255.748C888.479 255.504 888.383 255.3 888.233 254.98C888.208 254.927 888.182 254.871 888.154 254.812C887.828 254.109 887.442 253.427 887.042 252.72C886.995 252.639 886.949 252.557 886.903 252.475C886.755 252.214 886.506 251.96 886.168 251.698C885.91 251.498 885.641 251.322 885.36 251.137C885.266 251.076 885.172 251.014 885.075 250.95C884.413 250.509 883.646 250.077 882.985 249.916C882.851 249.884 882.708 249.852 882.557 249.819C882.083 249.716 881.538 249.596 881.024 249.382C880.545 249.182 880.019 249.098 879.405 249.024C879.324 249.015 879.241 249.005 879.156 248.995C878.629 248.935 878.033 248.866 877.463 248.705C876.745 248.502 875.94 248.487 875.113 248.487Z" fill="#FFAF3B"/>
</svg>
